<svg width="24" height="24" fill="none" viewBox="0 0 16 16"><path fill="#f90" fill-rule="evenodd" d="M5.753 14.905a1 1 0 01.74.198l.898.69a1 1 0 001.217 0l.9-.69a1 1 0 01.738-.198l1.124.148a1 1 0 001.054-.608l.433-1.047a.997.997 0 01.541-.54l1.047-.434a.999.999 0 00.608-1.054l-.148-1.124a1 1 0 01.198-.739l.69-.899a1 1 0 000-1.217l-.69-.899a1 1 0 01-.198-.739l.148-1.124a1 1 0 00-.608-1.054l-1.047-.433a.997.997 0 01-.54-.54l-.434-1.048A.999.999 0 0011.37.946l-1.124.148a.999.999 0 01-.739-.198l-.899-.69a1 1 0 00-1.217 0l-.899.69a.999.999 0 01-.739.198L4.63.946a1 1 0 00-1.054.608l-.433 1.047a.996.996 0 01-.54.541l-1.048.433A.999.999 0 00.946 4.63l.148 1.124a1 1 0 01-.198.74l-.69.898a1 1 0 000 1.217l.69.9c.161.21.233.475.198.738L.946 11.37a1 1 0 00.608 1.054l1.047.433c.245.101.44.296.541.541l.433 1.047a.999.999 0 001.054.608l1.124-.148" clip-rule="evenodd"></path><path fill="#f90" fill-rule="evenodd" d="M5.753 14.905a1 1 0 01.74.198l.898.69a1 1 0 001.217 0l.9-.69a1 1 0 01.738-.198l1.124.148a1 1 0 001.054-.608l.433-1.047a.997.997 0 01.541-.54l1.047-.434a.999.999 0 00.608-1.054l-.148-1.124a1 1 0 01.198-.739l.69-.899a1 1 0 000-1.217l-.69-.899a1 1 0 01-.198-.739l.148-1.124a1 1 0 00-.608-1.054l-1.047-.433a.997.997 0 01-.54-.54l-.434-1.048A.999.999 0 0011.37.946l-1.124.148a.999.999 0 01-.739-.198l-.899-.69a1 1 0 00-1.217 0l-.899.69a.999.999 0 01-.739.198L4.63.946a1 1 0 00-1.054.608l-.433 1.047a.996.996 0 01-.54.541l-1.048.433A.999.999 0 00.946 4.63l.148 1.124a1 1 0 01-.198.74l-.69.898a1 1 0 000 1.217l.69.9c.161.21.233.475.198.738L.946 11.37a1 1 0 00.608 1.054l1.047.433c.245.101.44.296.541.541l.433 1.047a.999.999 0 001.054.608l1.124-.148" clip-rule="evenodd"></path><path fill="#fff" fill-rule="evenodd" d="M11.635 5.228a1 1 0 01.137 1.408l-3.704 4.5a1 1 0 01-1.495.056l-2.296-2.4a1 1 0 011.445-1.383L7.24 8.995l2.988-3.63a1 1 0 011.408-.137z" clip-rule="evenodd"></path><defs><linearGradient id="blue-mark_svg__blue-mark_svg__paint_blue_mark_linear" x1="8" x2="8" y1="0" y2="16" gradientUnits="userSpaceOnUse"><stop stop-color="#1FAFED"></stop><stop offset="1" stop-color="#1F6AED"></stop></linearGradient></defs></svg>